# 3ds Max Wavefront OBJ Exporter v0.97b - (c)2007 guruware
# File Created: 03.03.2017 16:16:38

mtllib ClarmClock.mtl

#
# object ClarmClockBody
#

v  -5.4070 -4.0000 -2.2500
v  5.4070 -4.0000 -2.2500
v  5.4070 -4.0000 1.7711
v  -5.4070 -4.0000 1.7711
v  6.9000 -2.5070 1.7711
v  6.9000 -2.5070 -2.2500
v  6.9000 2.5070 -2.2500
v  6.9000 2.5070 1.7711
v  -6.0602 -3.9067 -2.2500
v  -6.5268 -3.6268 -2.2500
v  -6.8067 -3.1602 -2.2500
v  -6.9000 -2.5070 -2.2500
v  -6.9000 2.5070 -2.2500
v  -6.8067 3.1602 -2.2500
v  -6.5268 3.6268 -2.2500
v  -6.0602 3.9067 -2.2500
v  -5.4070 4.0000 -2.2500
v  5.4070 4.0000 -2.2500
v  6.0602 3.9067 -2.2500
v  6.5268 3.6268 -2.2500
v  6.8067 3.1602 -2.2500
v  6.0602 -3.9067 -2.2500
v  6.5268 -3.6268 -2.2500
v  6.8067 -3.1602 -2.2500
v  -6.9000 2.5070 1.7711
v  -6.9000 -2.5070 1.7711
v  4.7910 -3.5443 2.2500
v  -4.7910 -3.5443 2.2500
v  -4.7910 3.5443 2.2500
v  4.7910 3.5443 2.2500
v  5.4070 4.0000 1.7711
v  -5.4070 4.0000 1.7711
v  6.1139 2.2214 2.2500
v  6.1139 -2.2214 2.2500
v  -6.1139 -2.2214 2.2500
v  -6.1139 2.2214 2.2500
v  6.0602 3.9067 1.7711
v  5.3697 3.4616 2.2500
v  6.5268 3.6268 1.7711
v  5.7831 3.2135 2.2500
v  6.8067 3.1602 1.7711
v  6.0312 2.8002 2.2500
v  6.0602 -3.9067 1.7711
v  5.3697 -3.4616 2.2500
v  6.5268 -3.6268 1.7711
v  6.8067 -3.1602 1.7711
v  5.7831 -3.2135 2.2500
v  6.0312 -2.8002 2.2500
v  -6.0602 -3.9067 1.7711
v  -5.3697 -3.4616 2.2500
v  -6.5268 -3.6268 1.7711
v  -5.7831 -3.2135 2.2500
v  -6.8067 -3.1602 1.7711
v  -6.0312 -2.8002 2.2500
v  -6.0602 3.9067 1.7711
v  -5.3697 3.4616 2.2500
v  -6.5268 3.6268 1.7711
v  -6.8067 3.1602 1.7711
v  -5.7831 3.2135 2.2500
v  -6.0312 2.8002 2.2500
v  4.2475 -2.8991 2.2500
v  -4.2475 -2.8991 2.2500
v  -4.2475 2.8991 2.2500
v  4.2475 2.8991 2.2500
v  5.4203 1.8171 2.2500
v  5.4203 -1.8171 2.2500
v  -5.4203 -1.8171 2.2500
v  -5.4203 1.8171 2.2500
v  4.7606 2.8315 2.2500
v  5.3470 2.2905 2.2500
v  5.1271 2.6286 2.2500
v  5.3470 -2.2905 2.2500
v  4.7606 -2.8315 2.2500
v  5.1271 -2.6286 2.2500
v  -4.7606 -2.8315 2.2500
v  -5.3470 -2.2905 2.2500
v  -5.1271 -2.6286 2.2500
v  -5.3470 2.2905 2.2500
v  -4.7606 2.8315 2.2500
v  -5.1271 2.6286 2.2500
v  4.2475 -2.8991 1.7148
v  -4.2475 -2.8991 1.7148
v  -4.2475 2.8991 1.7148
v  4.2475 2.8991 1.7148
v  5.4203 1.8171 1.7148
v  5.4203 -1.8171 1.7148
v  -5.4203 -1.8171 1.7148
v  -5.4203 1.8171 1.7148
v  4.7606 2.8315 1.7148
v  5.3470 2.2905 1.7148
v  5.1271 2.6286 1.7148
v  5.3470 -2.2905 1.7148
v  4.7606 -2.8315 1.7148
v  5.1271 -2.6286 1.7148
v  -4.7606 -2.8315 1.7148
v  -5.3470 -2.2905 1.7148
v  -5.1271 -2.6286 1.7148
v  -5.3470 2.2905 1.7148
v  -4.7606 2.8315 1.7148
v  -5.1271 2.6286 1.7148
v  2.9845 4.0000 -0.9438
v  2.9845 4.0000 0.9438
v  -2.9845 4.0000 -0.9438
v  -2.9845 4.0000 0.9438
v  2.9845 3.5563 -0.9438
v  2.9845 3.5563 0.9438
v  -2.9845 3.5563 -0.9438
v  -2.9845 3.5563 0.9438
v  0.1145 4.0924 0.4833
v  0.1145 4.1385 0.4833
v  0.1007 4.1385 0.4453
v  0.1007 4.0924 0.4453
v  0.0747 4.1385 0.4144
v  0.0747 4.0924 0.4144
v  0.0398 4.1385 0.3942
v  0.0398 4.0924 0.3942
v  0.0000 4.1385 0.3872
v  0.0000 4.0924 0.3872
v  -0.0398 4.1385 0.3942
v  -0.0398 4.0924 0.3942
v  -0.0747 4.1385 0.4144
v  -0.0747 4.0924 0.4144
v  -0.1007 4.1385 0.4453
v  -0.1007 4.0924 0.4453
v  -0.1145 4.1385 0.4833
v  -0.1145 4.0924 0.4833
v  -0.1145 4.1385 0.5237
v  -0.1145 4.0924 0.5237
v  -0.1007 4.1385 0.5616
v  -0.1007 4.0924 0.5616
v  -0.0747 4.1385 0.5925
v  -0.0747 4.0924 0.5925
v  -0.0398 4.1385 0.6127
v  -0.0398 4.0924 0.6127
v  0.0000 4.1385 0.6197
v  0.0000 4.0924 0.6197
v  0.0398 4.1385 0.6127
v  0.0398 4.0924 0.6127
v  0.0747 4.1385 0.5925
v  0.0747 4.0924 0.5925
v  0.1007 4.1385 0.5616
v  0.1007 4.0924 0.5616
v  0.1145 4.1385 0.5237
v  0.1145 4.0924 0.5237
v  2.9604 4.1385 0.9329
v  2.9623 4.1385 -0.9341
v  -2.9653 4.1385 -0.9343
v  -2.9658 4.1385 0.9331
v  2.9623 3.8248 -0.9341
v  -2.9653 3.8248 -0.9343
v  -2.9658 3.8248 0.9331
v  2.9604 3.8248 0.9329
v  4.2475 2.8991 2.0602
v  -4.2475 2.8991 2.0602
v  -4.2475 -2.8991 2.0602
v  4.2475 -2.8991 2.0602
v  5.4203 -1.8171 2.0602
v  5.4203 1.8171 2.0602
v  5.3470 2.2905 2.0602
v  5.3470 -2.2905 2.0602
v  5.1271 2.6286 2.0602
v  5.1271 -2.6286 2.0602
v  4.7606 2.8315 2.0602
v  4.7606 -2.8315 2.0602
v  -5.4203 1.8171 2.0602
v  -5.4203 -1.8171 2.0602
v  -5.3470 -2.2905 2.0602
v  -5.3470 2.2905 2.0602
v  -5.1271 -2.6286 2.0602
v  -5.1271 2.6286 2.0602
v  -4.7606 -2.8315 2.0602
v  -4.7606 2.8315 2.0602
v  0.0000 4.0924 0.5035
# 173 vertices

vn -0.0709 -0.9975 -0.0000
vn 0.0709 -0.9975 -0.0000
vn 0.0762 -0.9163 0.3933
vn -0.0762 -0.9163 0.3933
vn 0.8719 -0.0649 0.4854
vn 0.9975 -0.0709 -0.0000
vn 0.9975 0.0709 -0.0000
vn 0.8719 0.0649 0.4854
vn 0.0000 0.0000 -1.0000
vn -0.8719 0.0649 0.4854
vn -0.9975 0.0709 -0.0000
vn -0.9975 -0.0709 -0.0000
vn -0.8719 -0.0649 0.4854
vn 0.0151 -0.3971 0.9177
vn -0.0151 -0.3971 0.9177
vn -0.0151 0.3971 0.9177
vn 0.0151 0.3971 0.9177
vn 0.0762 0.9163 0.3933
vn -0.0762 0.9163 0.3933
vn 0.2766 0.0165 0.9608
vn 0.2766 -0.0165 0.9608
vn -0.2766 -0.0165 0.9608
vn -0.2766 0.0165 0.9608
vn 0.3184 0.8404 0.4385
vn 0.0934 0.3517 0.9315
vn 0.3346 0.9424 -0.0000
vn 0.0709 0.9975 -0.0000
vn 0.6308 0.6187 0.4683
vn 0.2036 0.2234 0.9532
vn 0.8264 0.2959 0.4791
vn 0.2681 0.0915 0.9590
vn 0.7071 0.7071 -0.0000
vn 0.9424 0.3346 -0.0000
vn 0.3346 -0.9424 -0.0000
vn 0.3184 -0.8404 0.4385
vn 0.0934 -0.3517 0.9315
vn 0.7071 -0.7071 -0.0000
vn 0.6308 -0.6187 0.4683
vn 0.9424 -0.3346 -0.0000
vn 0.8264 -0.2959 0.4791
vn 0.2036 -0.2234 0.9532
vn 0.2681 -0.0915 0.9590
vn -0.3184 -0.8404 0.4385
vn -0.0934 -0.3517 0.9315
vn -0.3346 -0.9424 -0.0000
vn -0.6308 -0.6187 0.4683
vn -0.2036 -0.2234 0.9532
vn -0.8264 -0.2959 0.4791
vn -0.2681 -0.0915 0.9590
vn -0.7071 -0.7071 -0.0000
vn -0.9424 -0.3346 -0.0000
vn -0.0709 0.9975 -0.0000
vn -0.3346 0.9424 -0.0000
vn -0.3184 0.8404 0.4385
vn -0.0934 0.3517 0.9315
vn -0.7071 0.7071 -0.0000
vn -0.6308 0.6187 0.4683
vn -0.9424 0.3346 -0.0000
vn -0.8264 0.2959 0.4791
vn -0.2036 0.2234 0.9532
vn -0.2681 0.0915 0.9590
vn 0.0000 0.0000 1.0000
vn 0.0655 0.9979 -0.0000
vn -0.0655 0.9979 -0.0000
vn -0.0655 -0.9979 -0.0000
vn 0.0655 -0.9979 -0.0000
vn -0.9971 0.0767 -0.0000
vn -0.9971 -0.0767 -0.0000
vn 0.9971 -0.0767 -0.0000
vn 0.9971 0.0767 -0.0000
vn -0.3130 -0.9498 -0.0000
vn -0.9341 -0.3570 -0.0000
vn -0.6816 -0.7318 -0.0000
vn -0.9341 0.3570 -0.0000
vn -0.3130 0.9498 -0.0000
vn -0.6816 0.7318 -0.0000
vn 0.3130 0.9498 -0.0000
vn 0.9341 0.3570 -0.0000
vn 0.6816 0.7318 -0.0000
vn 0.9341 -0.3570 -0.0000
vn 0.3130 -0.9498 -0.0000
vn 0.6816 -0.7318 -0.0000
vn 0.0000 1.0000 -0.0000
vn -1.0000 0.0000 -0.0000
vn 1.0000 0.0000 -0.0000
vn -0.0000 0.0000 -1.0000
vn -0.9848 0.0000 0.1736
vn -0.8660 0.0000 0.5000
vn -0.6428 0.0000 0.7660
vn -0.3420 0.0000 0.9397
vn -0.0000 0.0000 1.0000
vn 0.3420 0.0000 0.9397
vn 0.6428 0.0000 0.7660
vn 0.8660 0.0000 0.5000
vn 0.9848 0.0000 0.1736
vn 0.9848 0.0000 -0.1736
vn 0.8660 0.0000 -0.5000
vn 0.6428 0.0000 -0.7660
vn 0.3420 0.0000 -0.9397
vn -0.3420 0.0000 -0.9397
vn -0.6428 0.0000 -0.7660
vn -0.8660 0.0000 -0.5000
vn -0.9848 0.0000 -0.1736
vn -0.0000 1.0000 0.0000
vn -0.0000 1.0000 -0.0000
vn 0.0000 1.0000 0.0000
vn -1.0000 0.0000 -0.0002
vn 1.0000 0.0000 0.0010
# 108 vertex normals

vt 0.4197 0.6633 0.0000
vt 0.0532 0.6633 0.0000
vt 0.0532 0.5271 0.0000
vt 0.4197 0.5270 0.0000
vt 0.0523 0.4471 0.0000
vt 0.0523 0.3066 0.0000
vt 0.2275 0.3067 0.0000
vt 0.2275 0.4472 0.0000
vt 0.3904 0.2456 0.0000
vt 0.1318 0.2456 0.0000
vt 0.1161 0.2434 0.0000
vt 0.1050 0.2367 0.0000
vt 0.0983 0.2255 0.0000
vt 0.0961 0.2099 0.0000
vt 0.0961 0.0900 0.0000
vt 0.0983 0.0744 0.0000
vt 0.1050 0.0632 0.0000
vt 0.1161 0.0565 0.0000
vt 0.1318 0.0543 0.0000
vt 0.4261 0.0900 0.0000
vt 0.3904 0.0543 0.0000
vt 0.4060 0.0565 0.0000
vt 0.4172 0.0632 0.0000
vt 0.4239 0.0744 0.0000
vt 0.4060 0.2434 0.0000
vt 0.4172 0.2367 0.0000
vt 0.4239 0.2255 0.0000
vt 0.4261 0.2099 0.0000
vt 0.7735 0.4471 0.0000
vt 0.7734 0.3066 0.0000
vt 0.9486 0.3065 0.0000
vt 0.9486 0.4470 0.0000
vt 0.0784 0.2771 0.0000
vt 0.4168 0.2725 0.0000
vt 0.4393 0.2936 0.0000
vt 0.0561 0.3004 0.0000
vt 0.4208 0.0253 0.0000
vt 0.0823 0.0299 0.0000
vt 0.0598 0.0088 0.0000
vt 0.4430 0.0020 0.0000
vt 0.0358 0.0733 0.0000
vt 0.0339 0.2301 0.0000
vt 0.0020 0.2403 0.0000
vt 0.0034 0.0624 0.0000
vt 0.4634 0.2291 0.0000
vt 0.4652 0.0722 0.0000
vt 0.4971 0.0621 0.0000
vt 0.4957 0.2400 0.0000
vt 0.0360 0.0119 0.0000
vt 0.0623 0.0323 0.0000
vt 0.3115 0.4472 0.0000
vt 0.2885 0.4472 0.0000
vt 0.2885 0.3067 0.0000
vt 0.3115 0.3234 0.0000
vt 0.0188 0.0218 0.0000
vt 0.0480 0.0398 0.0000
vt 0.0079 0.0386 0.0000
vt 0.0391 0.0534 0.0000
vt 0.2695 0.4472 0.0000
vt 0.2695 0.3067 0.0000
vt 0.2505 0.4472 0.0000
vt 0.2505 0.3067 0.0000
vt 0.0309 0.6633 0.0000
vt 0.0309 0.5271 0.0000
vt 0.0585 0.2740 0.0000
vt 0.0318 0.2944 0.0000
vt 0.0124 0.6633 0.0000
vt 0.0124 0.5271 0.0000
vt 0.0102 0.3066 0.0000
vt 0.0292 0.3066 0.0000
vt 0.0292 0.4471 0.0000
vt 0.0102 0.4471 0.0000
vt 0.0446 0.2651 0.0000
vt 0.0149 0.2821 0.0000
vt 0.0365 0.2504 0.0000
vt 0.0051 0.2642 0.0000
vt 0.4631 0.2905 0.0000
vt 0.4368 0.2701 0.0000
vt 0.4421 0.5270 0.0000
vt 0.4421 0.6633 0.0000
vt 0.4803 0.2805 0.0000
vt 0.4511 0.2625 0.0000
vt 0.4913 0.2637 0.0000
vt 0.4601 0.2490 0.0000
vt 0.4605 0.5270 0.0000
vt 0.4605 0.6633 0.0000
vt 0.9907 0.4470 0.0000
vt 0.9717 0.4470 0.0000
vt 0.9716 0.3065 0.0000
vt 0.9907 0.3065 0.0000
vt 0.6894 0.3067 0.0000
vt 0.7124 0.3067 0.0000
vt 0.7124 0.4472 0.0000
vt 0.6894 0.4472 0.0000
vt 0.4406 0.0283 0.0000
vt 0.4673 0.0079 0.0000
vt 0.7314 0.3067 0.0000
vt 0.7314 0.4472 0.0000
vt 0.7504 0.3066 0.0000
vt 0.7504 0.4471 0.0000
vt 0.4545 0.0373 0.0000
vt 0.4842 0.0203 0.0000
vt 0.4626 0.0520 0.0000
vt 0.4940 0.0381 0.0000
vt 0.0977 0.2542 0.0000
vt 0.3975 0.2506 0.0000
vt 0.4015 0.0482 0.0000
vt 0.1016 0.0518 0.0000
vt 0.0599 0.0881 0.0000
vt 0.0583 0.2162 0.0000
vt 0.4392 0.2143 0.0000
vt 0.4409 0.0862 0.0000
vt 0.0837 0.0542 0.0000
vt 0.0627 0.0721 0.0000
vt 0.0707 0.0609 0.0000
vt 0.0607 0.2327 0.0000
vt 0.0803 0.2520 0.0000
vt 0.0681 0.2447 0.0000
vt 0.4154 0.2481 0.0000
vt 0.4364 0.2303 0.0000
vt 0.4284 0.2414 0.0000
vt 0.4385 0.0697 0.0000
vt 0.4188 0.0503 0.0000
vt 0.4311 0.0576 0.0000
vt 0.3977 0.8808 0.0000
vt 0.0975 0.8808 0.0000
vt 0.0975 0.8619 0.0000
vt 0.3977 0.8619 0.0000
vt 0.4144 0.9451 0.0000
vt 0.1163 0.9451 0.0000
vt 0.1163 0.9264 0.0000
vt 0.4144 0.9264 0.0000
vt 0.6013 0.9451 0.0000
vt 0.4738 0.9451 0.0000
vt 0.4738 0.9264 0.0000
vt 0.6013 0.9264 0.0000
vt 0.5859 0.8808 0.0000
vt 0.4575 0.8808 0.0000
vt 0.4575 0.8619 0.0000
vt 0.5859 0.8619 0.0000
vt 0.4324 0.9451 0.0000
vt 0.4324 0.9264 0.0000
vt 0.4572 0.9451 0.0000
vt 0.4572 0.9264 0.0000
vt 0.4453 0.9451 0.0000
vt 0.4453 0.9264 0.0000
vt 0.6180 0.9451 0.0000
vt 0.6180 0.9264 0.0000
vt 0.0794 0.8808 0.0000
vt 0.0794 0.8619 0.0000
vt 0.0664 0.8808 0.0000
vt 0.0664 0.8619 0.0000
vt 0.0545 0.8808 0.0000
vt 0.0545 0.8619 0.0000
vt 0.4158 0.8808 0.0000
vt 0.4158 0.8619 0.0000
vt 0.4407 0.8808 0.0000
vt 0.4407 0.8619 0.0000
vt 0.4288 0.8808 0.0000
vt 0.4288 0.8619 0.0000
vt 0.6026 0.8808 0.0000
vt 0.6026 0.8619 0.0000
vt 0.0982 0.9451 0.0000
vt 0.0982 0.9264 0.0000
vt 0.6275 0.8808 0.0000
vt 0.6145 0.8808 0.0000
vt 0.6145 0.8619 0.0000
vt 0.6275 0.8619 0.0000
vt 0.3962 0.3523 0.0000
vt 0.3962 0.4183 0.0000
vt 0.6047 0.3523 0.0000
vt 0.6047 0.4183 0.0000
vt 0.5331 0.2196 0.0000
vt 0.6347 0.2196 0.0000
vt 0.6347 0.2435 0.0000
vt 0.5331 0.2435 0.0000
vt 0.9559 0.2196 0.0000
vt 0.9559 0.2435 0.0000
vt 0.5193 0.2583 0.0000
vt 0.6223 0.2583 0.0000
vt 0.6223 0.2825 0.0000
vt 0.5193 0.2825 0.0000
vt 0.9481 0.2583 0.0000
vt 0.9481 0.2825 0.0000
vt 0.7367 0.9188 0.0000
vt 0.7367 0.8993 0.0000
vt 0.7207 0.8993 0.0000
vt 0.7207 0.9188 0.0000
vt 0.7076 0.8993 0.0000
vt 0.7076 0.9188 0.0000
vt 0.6928 0.8993 0.0000
vt 0.6928 0.9188 0.0000
vt 0.6761 0.8993 0.0000
vt 0.6761 0.9188 0.0000
vt 0.6593 0.8993 0.0000
vt 0.6593 0.9188 0.0000
vt 0.6445 0.8993 0.0000
vt 0.6445 0.9188 0.0000
vt 0.9212 0.9188 0.0000
vt 0.9212 0.8993 0.0000
vt 0.9081 0.8993 0.0000
vt 0.9081 0.9188 0.0000
vt 0.8921 0.8993 0.0000
vt 0.8921 0.9188 0.0000
vt 0.8750 0.8993 0.0000
vt 0.8750 0.9188 0.0000
vt 0.8590 0.8993 0.0000
vt 0.8590 0.9188 0.0000
vt 0.8459 0.8993 0.0000
vt 0.8459 0.9188 0.0000
vt 0.8312 0.8993 0.0000
vt 0.8312 0.9188 0.0000
vt 0.8144 0.8993 0.0000
vt 0.8144 0.9188 0.0000
vt 0.7976 0.8993 0.0000
vt 0.7976 0.9188 0.0000
vt 0.7828 0.8993 0.0000
vt 0.7828 0.9188 0.0000
vt 0.7698 0.8993 0.0000
vt 0.7698 0.9188 0.0000
vt 0.7537 0.8993 0.0000
vt 0.7537 0.9188 0.0000
vt 0.7435 0.0624 0.0000
vt 0.9287 0.0385 0.0000
vt 0.7425 0.0648 0.0000
vt 0.7408 0.0668 0.0000
vt 0.9254 0.1595 0.0000
vt 0.7385 0.0680 0.0000
vt 0.5412 0.1486 0.0000
vt 0.7359 0.0684 0.0000
vt 0.7333 0.0679 0.0000
vt 0.7311 0.0665 0.0000
vt 0.7294 0.0644 0.0000
vt 0.7286 0.0619 0.0000
vt 0.7287 0.0593 0.0000
vt 0.5447 0.0275 0.0000
vt 0.7297 0.0569 0.0000
vt 0.7314 0.0549 0.0000
vt 0.7337 0.0537 0.0000
vt 0.7363 0.0533 0.0000
vt 0.7389 0.0538 0.0000
vt 0.7411 0.0552 0.0000
vt 0.7427 0.0573 0.0000
vt 0.7435 0.0597 0.0000
vt 0.5215 0.2074 0.0000
vt 0.5208 0.1841 0.0000
vt 0.9609 0.1703 0.0000
vt 0.9617 0.1936 0.0000
vt 0.1162 0.7374 0.0000
vt 0.1168 0.7056 0.0000
vt 0.3063 0.7093 0.0000
vt 0.3056 0.7411 0.0000
vt 0.0176 0.7902 0.0000
vt 0.0176 0.8238 0.0000
vt 0.6394 0.8238 0.0000
vt 0.6394 0.7902 0.0000
vt 0.8393 0.8238 0.0000
vt 0.8393 0.7902 0.0000
vt 0.9351 0.7750 0.0000
vt 0.5281 0.7750 0.0000
vt 0.5281 0.4972 0.0000
vt 0.9351 0.4972 0.0000
vt 0.9913 0.5490 0.0000
vt 0.9913 0.7232 0.0000
vt 0.9878 0.7458 0.0000
vt 0.9878 0.5264 0.0000
vt 0.9772 0.7620 0.0000
vt 0.9772 0.5101 0.0000
vt 0.9597 0.7718 0.0000
vt 0.9597 0.5004 0.0000
vt 0.4719 0.7232 0.0000
vt 0.4719 0.5490 0.0000
vt 0.4754 0.5264 0.0000
vt 0.4754 0.7458 0.0000
vt 0.4859 0.5101 0.0000
vt 0.4859 0.7620 0.0000
vt 0.5035 0.5004 0.0000
vt 0.5035 0.7718 0.0000
vt 0.7760 0.9188 0.0000
# 279 texture coords

g ClarmClockBody
usemtl ClarmClockBody
s 1
f 1/1/1 2/2/2 3/3/3 4/4/4 
f 5/5/5 6/6/6 7/7/7 8/8/8 
s 2
f 2/9/9 1/10/9 9/11/9 10/12/9 
f 2/9/9 10/12/9 11/13/9 12/14/9 
f 12/14/9 13/15/9 14/16/9 15/17/9 
f 12/14/9 15/17/9 16/18/9 17/19/9 
f 2/9/9 12/14/9 17/19/9 7/20/9 
f 17/19/9 18/21/9 19/22/9 20/23/9 
f 17/19/9 20/23/9 21/24/9 7/20/9 
f 22/25/9 2/9/9 7/20/9 23/26/9 
f 24/27/9 23/26/9 7/20/9 6/28/9 
s 1
f 25/29/10 13/30/11 12/31/12 26/32/13 
f 27/33/14 28/34/15 4/35/4 3/36/3 
f 29/37/16 30/38/17 31/39/18 32/40/19 
f 33/41/20 34/42/21 5/43/5 8/44/8 
f 35/45/22 36/46/23 25/47/10 26/48/13 
f 37/49/24 31/39/18 30/38/17 38/50/25 
f 31/51/18 37/52/24 19/53/26 18/54/27 
f 39/55/28 37/49/24 38/50/25 40/56/29 
f 41/57/30 39/55/28 40/56/29 42/58/31 
f 8/44/8 41/57/30 42/58/31 33/41/20 
f 37/52/24 39/59/28 20/60/32 19/53/26 
f 39/59/28 41/61/30 21/62/33 20/60/32 
f 41/61/30 8/8/8 7/7/7 21/62/33 
f 2/2/2 22/63/34 43/64/35 3/3/3 
f 44/65/36 27/33/14 3/36/3 43/66/35 
f 22/63/34 23/67/37 45/68/38 43/64/35 
f 23/69/37 24/70/39 46/71/40 45/72/38 
f 24/70/39 6/6/6 5/5/5 46/71/40 
f 47/73/41 44/65/36 43/66/35 45/74/38 
f 48/75/42 47/73/41 45/74/38 46/76/40 
f 34/42/21 48/75/42 46/76/40 5/43/5 
f 49/77/43 4/35/4 28/34/15 50/78/44 
f 4/4/4 49/79/43 9/80/45 1/1/1 
f 51/81/46 49/77/43 50/78/44 52/82/47 
f 53/83/48 51/81/46 52/82/47 54/84/49 
f 26/48/13 53/83/48 54/84/49 35/45/22 
f 49/79/43 51/85/46 10/86/50 9/80/45 
f 51/87/46 53/88/48 11/89/51 10/90/50 
f 53/88/48 26/32/13 12/31/12 11/89/51 
f 17/91/52 16/92/53 55/93/54 32/94/19 
f 56/95/55 29/37/16 32/40/19 55/96/54 
f 16/92/53 15/97/56 57/98/57 55/93/54 
f 15/97/56 14/99/58 58/100/59 57/98/57 
f 14/99/58 13/30/11 25/29/10 58/100/59 
f 59/101/60 56/95/55 55/96/54 57/102/57 
f 60/103/61 59/101/60 57/102/57 58/104/59 
f 36/46/23 60/103/61 58/104/59 25/47/10 
f 28/34/15 27/33/14 61/105/62 62/106/62 
f 30/38/17 29/37/16 63/107/62 64/108/62 
f 34/42/21 33/41/20 65/109/62 66/110/62 
f 36/46/23 35/45/22 67/111/62 68/112/62 
f 38/50/25 30/38/17 64/108/62 69/113/62 
f 33/41/20 42/58/31 70/114/62 65/109/62 
f 42/58/31 40/56/29 71/115/62 70/114/62 
f 40/56/29 38/50/25 69/113/62 71/115/62 
f 48/75/42 34/42/21 66/110/62 72/116/62 
f 27/33/14 44/65/36 73/117/62 61/105/62 
f 44/65/36 47/73/41 74/118/62 73/117/62 
f 47/73/41 48/75/42 72/116/62 74/118/62 
f 50/78/44 28/34/15 62/106/62 75/119/62 
f 35/45/22 54/84/49 76/120/62 67/111/62 
f 54/84/49 52/82/47 77/121/62 76/120/62 
f 52/82/47 50/78/44 75/119/62 77/121/62 
f 60/103/61 36/46/23 68/112/62 78/122/62 
f 29/37/16 56/95/55 79/123/62 63/107/62 
f 56/95/55 59/101/60 80/124/62 79/123/62 
f 59/101/60 60/103/61 78/122/62 80/124/62 
s 2
f 62/125/63 61/126/64 81/127/64 82/128/63 
f 64/129/65 63/130/66 83/131/66 84/132/65 
f 66/133/67 65/134/68 85/135/68 86/136/67 
f 68/137/69 67/138/70 87/139/70 88/140/69 
f 69/141/71 64/129/65 84/132/65 89/142/71 
f 65/134/68 70/143/72 90/144/72 85/135/68 
f 70/143/72 71/145/73 91/146/73 90/144/72 
f 71/145/73 69/141/71 89/142/71 91/146/73 
f 72/147/74 66/133/67 86/136/67 92/148/74 
f 61/126/64 73/149/75 93/150/75 81/127/64 
f 73/149/75 74/151/76 94/152/76 93/150/75 
f 74/151/76 72/153/74 92/154/74 94/152/76 
f 75/155/77 62/125/63 82/128/63 95/156/77 
f 67/138/70 76/157/78 96/158/78 87/139/70 
f 76/157/78 77/159/79 97/160/79 96/158/78 
f 77/159/79 75/155/77 95/156/77 97/160/79 
f 78/161/80 68/137/69 88/140/69 98/162/80 
f 63/130/66 79/163/81 99/164/81 83/131/66 
f 79/165/81 80/166/82 100/167/82 99/168/81 
f 80/166/82 78/161/80 98/162/80 100/167/82 
s 1
f 31/51/18 18/54/27 101/169/83 102/170/83 
f 18/54/27 17/91/52 103/171/83 101/169/83 
f 17/91/52 32/94/19 104/172/83 103/171/83 
f 32/94/19 31/51/18 102/170/83 104/172/83 
s 2
f 102/173/84 101/174/84 105/175/84 106/176/84 
s 4
f 101/174/62 103/177/62 107/178/62 105/175/62 
s 2
f 103/179/85 104/180/85 108/181/85 107/182/85 
s 4
f 104/180/86 102/183/86 106/184/86 108/181/86 
s 1
f 109/185/87 110/186/87 111/187/88 112/188/88 
f 112/188/88 111/187/88 113/189/89 114/190/89 
f 114/190/89 113/189/89 115/191/90 116/192/90 
f 116/192/90 115/191/90 117/193/91 118/194/91 
f 118/194/91 117/193/91 119/195/92 120/196/92 
f 120/196/92 119/195/92 121/197/93 122/198/93 
f 122/199/93 121/200/93 123/201/94 124/202/94 
f 124/202/94 123/201/94 125/203/95 126/204/95 
f 126/204/95 125/203/95 127/205/96 128/206/96 
f 128/206/96 127/205/96 129/207/97 130/208/97 
f 130/208/97 129/207/97 131/209/98 132/210/98 
f 132/210/98 131/209/98 133/211/99 134/212/99 
f 134/212/99 133/211/99 135/213/9 136/214/86 
f 136/214/86 135/213/9 137/215/100 138/216/100 
f 138/216/100 137/215/100 139/217/101 140/218/101 
f 140/218/101 139/217/101 141/219/102 142/220/102 
f 142/220/102 141/219/102 143/221/103 144/222/103 
f 144/222/103 143/221/103 110/186/87 109/185/87 
s 2
f 110/223/104 145/224/105 111/225/104 
f 111/225/104 145/224/105 113/226/104 
f 113/226/104 145/224/105 146/227/104 115/228/104 
f 115/228/104 146/227/104 147/229/106 117/230/104 
f 117/230/104 147/229/106 119/231/106 
f 119/231/106 147/229/106 121/232/106 
f 121/232/106 147/229/106 123/233/106 
f 123/233/106 147/229/106 125/234/106 
f 125/234/106 147/229/106 127/235/83 
f 127/235/83 147/229/106 148/236/83 129/237/83 
f 129/237/83 148/236/83 131/238/83 
f 131/238/83 148/236/83 133/239/83 
f 133/239/83 148/236/83 135/240/105 
f 135/240/105 148/236/83 145/224/105 137/241/105 
f 137/241/105 145/224/105 139/242/105 
f 139/242/105 145/224/105 141/243/105 
f 141/243/105 145/224/105 143/244/105 
f 143/244/105 145/224/105 110/223/104 
s 4
f 146/245/9 149/246/9 150/247/9 147/248/9 
s 1
f 147/249/107 150/250/107 151/251/107 148/252/107 
s 4
f 148/253/62 151/254/62 152/255/62 145/256/62 
s 1
f 145/256/108 152/255/108 149/257/108 146/258/108 
s off
f 153/259/62 154/260/62 155/261/62 156/262/62 
f 157/263/62 158/264/62 159/265/62 160/266/62 
f 160/266/62 159/265/62 161/267/62 162/268/62 
f 162/268/62 161/267/62 163/269/62 164/270/62 
f 164/270/62 163/269/62 153/259/62 156/262/62 
f 165/271/62 166/272/62 167/273/62 168/274/62 
f 168/274/62 167/273/62 169/275/62 170/276/62 
f 170/276/62 169/275/62 171/277/62 172/278/62 
f 172/278/62 171/277/62 155/261/62 154/260/62 
f 109/185/83 112/188/83 173/279/83 
f 112/188/83 114/190/83 173/279/83 
f 114/190/83 116/192/83 173/279/83 
f 116/192/83 118/194/83 173/279/83 
f 118/194/105 120/196/105 173/279/105 
f 120/196/105 122/198/105 173/279/105 
f 122/199/105 124/202/105 173/279/105 
f 124/202/105 126/204/105 173/279/105 
f 126/204/105 128/206/105 173/279/105 
f 128/206/104 130/208/104 173/279/104 
f 130/208/104 132/210/104 173/279/104 
f 132/210/104 134/212/104 173/279/104 
f 134/212/104 136/214/104 173/279/104 
f 136/214/106 138/216/106 173/279/106 
f 138/216/106 140/218/106 173/279/106 
f 140/218/106 142/220/106 173/279/106 
f 142/220/106 144/222/106 173/279/106 
f 144/222/106 109/185/106 173/279/106 
# 131 polygons - 32 triangles

