# 3ds Max Wavefront OBJ Exporter v0.97b - (c)2007 guruware
# 创建的文件:20.03.2017 15:42:26

#
# object IronPlate
#

v  23.2878 0.0000 -13.7601
v  23.2878 0.0000 13.7601
v  -23.2878 0.0000 13.7601
v  -23.2878 0.0000 -13.7601
v  23.6996 2.5000 -13.9814
v  -23.6996 2.5000 -13.9814
v  -23.6996 2.5000 13.9814
v  23.6996 2.5000 13.9814
v  25.0000 5.0001 15.0000
v  -25.0000 5.0001 15.0000
v  25.0000 5.0001 -15.0000
v  -25.0000 5.0001 -15.0000
v  26.1167 5.0001 16.2553
v  26.1167 5.2198 16.2553
v  -26.1167 5.2198 16.2553
v  -26.1167 5.0001 16.2553
v  26.1167 5.0001 -16.2553
v  26.1167 5.2198 -16.2553
v  -26.1167 5.0001 -16.2553
v  -26.1167 5.2198 -16.2553
v  -24.7000 5.2198 14.7000
v  24.7000 5.2198 14.7000
v  -24.7000 5.2198 -14.7000
v  24.7000 5.2198 -14.7000
# 24 vertices

vn 0.0000 -1.0000 -0.0000
vn 0.0000 1.0000 -0.0000
vn 0.0000 -0.2407 0.9706
vn 0.9461 -0.3240 -0.0000
vn 0.0000 -0.2407 -0.9706
vn -0.9461 -0.3240 -0.0000
vn 0.0000 0.0000 1.0000
vn 1.0000 0.0000 -0.0000
vn 0.0000 0.0000 -1.0000
vn -1.0000 0.0000 -0.0000
vn 0.0000 0.2554 -0.9668
vn 0.9385 0.3452 -0.0000
vn 0.0000 0.2554 0.9668
vn -0.9385 0.3452 -0.0000
# 14 vertex normals

vt 0.5987 0.9678 0.0000
vt 0.4623 0.9678 0.0000
vt 0.4623 0.8310 0.0000
vt 0.5987 0.8310 0.0000
vt 0.0050 0.9756 0.0000
vt 0.0050 0.5304 0.0000
vt 0.2676 0.5304 0.0000
vt 0.2676 0.9756 0.0000
vt 0.6939 0.8166 0.0000
vt 0.6939 0.3470 0.0000
vt 0.7408 0.3631 0.0000
vt 0.7408 0.8005 0.0000
vt 0.5091 0.5391 0.0000
vt 0.5561 0.5507 0.0000
vt 0.5561 0.8092 0.0000
vt 0.5091 0.8208 0.0000
vt 0.6380 0.3470 0.0000
vt 0.6850 0.3631 0.0000
vt 0.6850 0.8005 0.0000
vt 0.6380 0.8166 0.0000
vt 0.5605 0.5391 0.0000
vt 0.6075 0.5507 0.0000
vt 0.6075 0.8092 0.0000
vt 0.5605 0.8208 0.0000
vt 0.9540 0.7793 0.0000
vt 0.9375 0.7793 0.0000
vt 0.9375 0.3631 0.0000
vt 0.9540 0.3631 0.0000
vt 0.4861 0.4550 0.0000
vt 0.4605 0.4550 0.0000
vt 0.4605 0.0571 0.0000
vt 0.4861 0.0571 0.0000
vt 0.8668 0.7793 0.0000
vt 0.8504 0.7793 0.0000
vt 0.8504 0.3631 0.0000
vt 0.8668 0.3631 0.0000
vt 0.5225 0.4604 0.0000
vt 0.4969 0.4604 0.0000
vt 0.4969 0.0624 0.0000
vt 0.5225 0.0624 0.0000
vt 0.2765 0.9944 0.0000
vt 0.2765 0.5304 0.0000
vt 0.3029 0.5398 0.0000
vt 0.3029 0.9850 0.0000
vt 0.4458 0.8152 0.0000
vt 0.4458 0.5391 0.0000
vt 0.4730 0.5458 0.0000
vt 0.4730 0.8085 0.0000
vt 0.7497 0.3470 0.0000
vt 0.7761 0.3564 0.0000
vt 0.7761 0.8016 0.0000
vt 0.7497 0.8110 0.0000
vt 0.4774 0.5391 0.0000
vt 0.5047 0.5458 0.0000
vt 0.5047 0.8085 0.0000
vt 0.4774 0.8152 0.0000
vt 0.3356 0.9845 0.0000
vt 0.3238 0.9950 0.0000
vt 0.3238 0.5044 0.0000
vt 0.3356 0.5149 0.0000
vt 0.6291 0.9950 0.0000
vt 0.6173 0.9845 0.0000
vt 0.6291 0.5044 0.0000
vt 0.6173 0.5149 0.0000
vt 0.6291 0.0050 0.0000
vt 0.6291 0.4956 0.0000
vt 0.6145 0.4823 0.0000
vt 0.6145 0.0183 0.0000
vt 0.3238 0.0050 0.0000
vt 0.3384 0.0183 0.0000
vt 0.3384 0.4823 0.0000
vt 0.3238 0.4956 0.0000
# 72 texture coords

g IronPlate
s 2
f 1/1/1 2/2/1 3/3/1 4/4/1 
s 4
f 5/5/2 6/6/2 7/7/2 8/8/2 
s 8
f 9/9/3 10/10/3 3/11/3 2/12/3 
s 16
f 9/13/4 2/14/4 1/15/4 11/16/4 
s 32
f 11/17/5 1/18/5 4/19/5 12/20/5 
s 64
f 12/21/6 4/22/6 3/23/6 10/24/6 
s off
f 13/25/7 14/26/7 15/27/7 16/28/7 
f 17/29/8 18/30/8 14/31/8 13/32/8 
f 19/33/9 20/34/9 18/35/9 17/36/9 
f 16/37/10 15/38/10 20/39/10 19/40/10 
f 21/41/11 22/42/11 8/43/11 7/44/11 
f 23/45/12 21/46/12 7/47/12 6/48/12 
f 23/49/13 6/50/13 5/51/13 24/52/13 
f 24/53/14 5/54/14 8/55/14 22/56/14 
f 9/57/1 13/58/1 16/59/1 10/60/1 
f 17/61/1 13/58/1 9/57/1 11/62/1 
f 19/63/1 17/61/1 11/62/1 12/64/1 
f 10/60/1 16/59/1 19/63/1 12/64/1 
f 15/65/2 14/66/2 22/67/2 21/68/2 
f 20/69/2 15/65/2 21/68/2 23/70/2 
f 20/69/2 23/70/2 24/71/2 18/72/2 
f 18/72/2 24/71/2 22/67/2 14/66/2 
# 22 polygons

